<svg id="Capa_1" enable-background="new 0 0 512 512" height="512" viewBox="0 0 512 512" width="512" xmlns="http://www.w3.org/2000/svg"><g><g><path d="m303.115 512h-94.231c-8.284 0-15-6.716-15-15v-36.514c-12.531-3.801-24.678-8.752-36.311-14.8l-32.647 33.041c-2.818 2.853-6.661 4.457-10.67 4.457-.011 0-.021 0-.033 0-4.021-.009-7.87-1.632-10.683-4.504l-66.63-68.027c-5.73-5.851-5.709-15.215.047-21.04l31.251-31.622c-6.751-12.403-12.237-25.415-16.396-38.889h-32.41c-8.284 0-15-6.716-15-15v-96.205c0-8.284 6.716-15 15-15h32.41c4.158-13.474 9.644-26.486 16.396-38.89l-31.251-31.622c-5.756-5.825-5.777-15.189-.047-21.04l66.631-68.026c2.813-2.872 6.662-4.495 10.683-4.504h.033c4.009 0 7.852 1.604 10.67 4.457l32.647 33.04c11.632-6.048 23.78-10.999 36.311-14.8v-36.512c0-8.284 6.716-15 15-15h94.231c8.284 0 15 6.716 15 15v36.513c12.531 3.801 24.679 8.752 36.311 14.8l32.646-33.04c2.818-2.853 6.661-4.457 10.67-4.457h.033c4.021.009 7.869 1.632 10.683 4.504l66.631 68.026c5.73 5.851 5.71 15.215-.047 21.04l-31.25 31.622c6.751 12.403 12.237 25.416 16.395 38.89h32.411c8.284 0 15 6.716 15 15v96.205c0 8.284-6.716 15-15 15h-32.41c-4.158 13.472-9.644 26.484-16.396 38.889l31.25 31.622c5.757 5.825 5.777 15.189.047 21.04l-66.631 68.027c-2.813 2.872-6.662 4.495-10.684 4.504-.011 0-.021 0-.032 0-4.01 0-7.852-1.604-10.67-4.457l-32.646-33.041c-11.632 6.048-23.779 10.999-36.311 14.8v36.513c-.001 8.284-6.716 15-15.001 15zm-79.23-30h64.231v-32.961c0-6.919 4.732-12.939 11.455-14.575 17.537-4.266 34.32-11.103 49.883-20.321 5.924-3.509 13.476-2.535 18.314 2.363l29.928 30.29 45.635-46.592-28.936-29.28c-4.869-4.927-5.731-12.546-2.087-18.436 9.987-16.143 17.367-33.641 21.935-52.006 1.663-6.687 7.667-11.38 14.557-11.38h28.799v-66.205h-28.8c-6.89 0-12.894-4.693-14.557-11.38-4.568-18.368-11.947-35.865-21.934-52.007-3.645-5.89-2.782-13.509 2.087-18.436l28.936-29.28-45.635-46.591-29.928 30.289c-4.839 4.897-12.392 5.87-18.314 2.363-15.563-9.219-32.346-16.056-49.883-20.321-6.723-1.636-11.455-7.656-11.455-14.575v-32.959h-64.231v32.96c0 6.919-4.732 12.939-11.455 14.575-17.537 4.266-34.32 11.103-49.883 20.321-5.923 3.509-13.475 2.534-18.314-2.363l-29.928-30.289-45.635 46.591 28.937 29.28c4.869 4.927 5.731 12.546 2.087 18.437-9.987 16.14-17.367 33.637-21.935 52.006-1.663 6.687-7.667 11.38-14.557 11.38h-28.8v66.205h28.799c6.89 0 12.894 4.693 14.557 11.38 4.568 18.368 11.948 35.865 21.935 52.005 3.645 5.891 2.782 13.51-2.087 18.437l-28.937 29.28 45.636 46.592 29.928-30.29c4.839-4.898 12.391-5.871 18.314-2.363 15.563 9.219 32.346 16.056 49.883 20.321 6.723 1.635 11.455 7.656 11.455 14.575z"/></g><g><path d="m256 385.348c-71.323 0-129.348-58.025-129.348-129.348s58.025-129.349 129.348-129.349 129.348 58.026 129.348 129.349c0 71.322-58.025 129.348-129.348 129.348zm0-228.697c-54.781 0-99.348 44.567-99.348 99.349 0 54.78 44.567 99.348 99.348 99.348s99.348-44.568 99.348-99.348c0-54.781-44.567-99.349-99.348-99.349z"/></g></g></svg>