<?xml version="1.0" encoding="iso-8859-1"?>
<!-- Generator: Adobe Illustrator 18.1.1, SVG Export Plug-In . SVG Version: 6.00 Build 0)  -->
<svg version="1.1" id="Capa_1" xmlns="http://www.w3.org/2000/svg" xmlns:xlink="http://www.w3.org/1999/xlink" x="0px" y="0px"
	 viewBox="0 0 174.239 174.239" style="enable-background:new 0 0 174.239 174.239;" xml:space="preserve">
<g>
	<path d="M108.083,99.453c0,11.598-9.42,20.963-20.963,20.963c-11.543,0-20.963-9.365-20.963-20.963
		c0-11.543,9.42-20.909,20.963-20.909C98.663,78.544,108.083,87.909,108.083,99.453z"/>
	<path d="M167.542,42.498H125.67c-3.703,0-6.697-2.995-6.697-6.697V24.53c0-3.703-3.049-6.752-6.697-6.752H61.964
		c-3.648,0-6.697,3.049-6.697,6.752v11.271c0,3.703-2.995,6.697-6.697,6.697H6.698C2.995,42.498,0,45.547,0,49.195v100.569
		c0,3.648,2.995,6.697,6.698,6.697h160.845c3.703,0,6.697-3.049,6.697-6.697V49.195C174.239,45.547,171.245,42.498,167.542,42.498z
		 M87.12,134.355c-19.275,0-34.902-15.573-34.902-34.902c0-19.275,15.627-34.902,34.902-34.902
		c19.275,0,34.903,15.627,34.903,34.902C122.022,118.782,106.395,134.355,87.12,134.355z M149.791,80.395
		c-5.064,0-9.202-4.138-9.202-9.202s4.138-9.202,9.202-9.202c5.064,0,9.202,4.138,9.202,9.202S154.855,80.395,149.791,80.395z"/>
	<g>
		<path d="M30.577,46.404c0,0.74-0.606,1.346-1.346,1.346H12.517c-0.74,0-1.346-0.606-1.346-1.346V36.112
			c0-0.74,0.606-1.346,1.346-1.346h16.714c0.74,0,1.346,0.606,1.346,1.346V46.404z"/>
	</g>
	<g>
		<path d="M48.587,46.823c0,0.74-0.606,1.346-1.346,1.346H35.693c-0.74,0-1.346-0.606-1.346-1.346V36.531
			c0-0.74,0.606-1.346,1.346-1.346h11.548c0.74,0,1.346,0.606,1.346,1.346V46.823z"/>
	</g>
</g>
<g>
</g>
<g>
</g>
<g>
</g>
<g>
</g>
<g>
</g>
<g>
</g>
<g>
</g>
<g>
</g>
<g>
</g>
<g>
</g>
<g>
</g>
<g>
</g>
<g>
</g>
<g>
</g>
<g>
</g>
</svg>
